<?xml version="1.0" encoding="UTF-8" standalone="no"?>
<!DOCTYPE svg PUBLIC "-//W3C//DTD SVG 1.1//EN" "http://www.w3.org/Graphics/SVG/1.1/DTD/svg11.dtd">
<!-- Created with Vectornator (http://vectornator.io/) -->
<svg height="500.0pt" stroke-miterlimit="10" style="fill-rule:nonzero;clip-rule:evenodd;stroke-linecap:round;stroke-linejoin:round;" version="1.1" viewBox="0 0 500 500" width="500.0pt" xml:space="preserve" xmlns="http://www.w3.org/2000/svg" xmlns:xlink="http://www.w3.org/1999/xlink">
<defs/>
<clipPath id="ArtboardFrame">
<rect height="500" width="500" x="0" y="0"/>
</clipPath>
<g clip-path="url(#ArtboardFrame)" id="Untitled">
<g opacity="0.397091">
<clipPath clip-rule="nonzero" id="ClipPath">
<path d="M-50-50L550-50L550-50L550 550L550 550L-50 550L-50 550L-50-50L-50-50Z"/>
</clipPath>
<g clip-path="url(#ClipPath)">
<clipPath clip-rule="nonzero" id="ClipPath_2">
<path d="M274.667 234.667L376 234.667L376 234.667L376 286.667L376 286.667L274.667 286.667L274.667 286.667L274.667 234.667L274.667 234.667Z"/>
</clipPath>
<g clip-path="url(#ClipPath_2)">
<clipPath clip-rule="nonzero" id="ClipPath_3">
<path d="M274.922 235.37L375.339 235.37L375.339 285.323L274.922 285.323L274.922 235.37Z"/>
</clipPath>
<g clip-path="url(#ClipPath_3)">
<path d="M274.922 285.323L274.922 235.37L375.417 235.37L375.417 285.323L274.922 285.323Z" fill="#000000" fill-rule="nonzero" opacity="1" stroke="none"/>
</g>
</g>
</g>
</g>
<g opacity="0.397091">
<clipPath clip-rule="nonzero" id="ClipPath_4">
<path d="M-50-50L550-50L550-50L550 550L550 550L-50 550L-50 550L-50-50L-50-50Z"/>
</clipPath>
<g clip-path="url(#ClipPath_4)">
<clipPath clip-rule="nonzero" id="ClipPath_5">
<path d="M124 234.667L225.333 234.667L225.333 234.667L225.333 286.667L225.333 286.667L124 286.667L124 286.667L124 234.667L124 234.667Z"/>
</clipPath>
<g clip-path="url(#ClipPath_5)">
<clipPath clip-rule="nonzero" id="ClipPath_6">
<path d="M124.672 235.37L225.083 235.37L225.083 285.323L124.672 285.323L124.672 235.37Z"/>
</clipPath>
<g clip-path="url(#ClipPath_6)">
<path d="M124.672 285.323L124.672 235.37L225.167 235.37L225.167 285.323L124.672 285.323Z" fill="#000000" fill-rule="nonzero" opacity="1" stroke="none"/>
</g>
</g>
</g>
</g>
<g opacity="0.397091">
<clipPath clip-rule="nonzero" id="ClipPath_7">
<path d="M-50-50L550-50L550-50L550 550L550 550L-50 550L-50 550L-50-50L-50-50Z"/>
</clipPath>
<g clip-path="url(#ClipPath_7)">
<clipPath clip-rule="nonzero" id="ClipPath_8">
<path d="M424 234.667L441.333 234.667L441.333 234.667L441.333 286.667L441.333 286.667L424 286.667L424 286.667L424 234.667L424 234.667Z"/>
</clipPath>
<g clip-path="url(#ClipPath_8)">
<clipPath clip-rule="nonzero" id="ClipPath_9">
<path d="M425.172 235.37L440.625 235.37L440.625 285.323L425.172 285.323L425.172 235.37Z"/>
</clipPath>
<g clip-path="url(#ClipPath_9)">
<path d="M425.172 285.323L425.172 235.354L440.625 235.354L440.625 285.323L425.172 285.323Z" fill="#000000" fill-rule="nonzero" opacity="1" stroke="none"/>
</g>
</g>
</g>
</g>
<g opacity="0.397091">
<clipPath clip-rule="nonzero" id="ClipPath_10">
<path d="M-50-50L550-50L550-50L550 550L550 550L-50 550L-50 550L-50-50L-50-50Z"/>
</clipPath>
<g clip-path="url(#ClipPath_10)">
<clipPath clip-rule="nonzero" id="ClipPath_11">
<path d="M58.6667 234.667L76 234.667L76 234.667L76 286.667L76 286.667L58.6667 286.667L58.6667 286.667L58.6667 234.667L58.6667 234.667Z"/>
</clipPath>
<g clip-path="url(#ClipPath_11)">
<clipPath clip-rule="nonzero" id="ClipPath_12">
<path d="M59.3854 235.37L74.8333 235.37L74.8333 285.323L59.3854 285.323L59.3854 235.37Z"/>
</clipPath>
<g clip-path="url(#ClipPath_12)">
<path d="M59.3854 285.323L59.3854 235.354L74.8333 235.354L74.8333 285.323L59.3854 285.323Z" fill="#000000" fill-rule="nonzero" opacity="1" stroke="none"/>
</g>
</g>
</g>
</g>
<path d="M74.8438 120.156L74.8438 218.719C74.8398 218.929 74.8151 219.134 74.8125 219.344L74.8125 350.594L124.656 350.594L124.656 285.344L74.8438 285.344L74.8438 235.312L124.656 235.312L124.656 221.25C124.927 197.708 139.026 179.219 158.156 172.219C158.266 172.161 158.365 172.146 158.469 172.094C163.563 170.344 169.099 169.375 174.844 169.375C180.589 169.375 186.443 170.5 191.594 172.25C210.938 179.089 224.792 197.578 225.062 221.344L225.062 350.594L274.906 350.594L274.906 285.344L225.094 285.344L225.094 235.312L274.906 235.312L274.906 221.25C275.177 197.708 289.281 179.219 308.406 172.219C308.516 172.161 308.609 172.146 308.719 172.094C313.813 170.344 319.349 169.375 325.094 169.375C330.839 169.375 336.698 170.5 341.844 172.25C361.193 179.089 375.041 197.578 375.312 221.344L375.312 350.594L425.156 350.594L425.156 285.344L375.344 285.344L375.344 235.312L425.156 235.312L425.156 219.438C424.615 176.411 396.99 139.568 358.438 125.938C348.182 122.448 336.51 120.156 325.062 120.156C313.615 120.156 302.62 122.135 292.469 125.625C292.25 125.729 292.026 125.703 291.812 125.812C275.666 131.723 261.341 141.759 250.125 154.594C238.929 141.73 224.563 131.728 208.188 125.938C197.927 122.448 186.255 120.156 174.812 120.156C163.365 120.156 152.365 122.135 142.219 125.625C142 125.729 141.781 125.703 141.562 125.812C135.651 127.977 130.02 130.766 124.656 133.969L124.656 120.156L74.8438 120.156Z" fill="#000000" fill-rule="nonzero" opacity="1" stroke="none"/>
</g>
</svg>
