<svg width="1024" height="1024" viewBox="0 0 1024 1024" fill="none" xmlns="http://www.w3.org/2000/svg">
<g filter="url(#filter0_bd_350_2)">
<mask id="mask0_350_2" style="mask-type:luminance" maskUnits="userSpaceOnUse" x="276" y="222" width="61" height="455">
<path d="M276.753 222.1H336.887V676.706H276.753V222.1Z" fill="white"/>
</mask>
<g mask="url(#mask0_350_2)">
<path d="M276.753 222.1H336.887V676.629H276.753V222.1Z" fill="white"/>
</g>
<path d="M62 222.103V423.54C62.7419 483.146 100.716 533.766 153.676 552.487C166.782 556.944 181.554 559.94 196.206 560.344H203.25C217.633 559.953 231.483 557.348 244.318 552.936C244.615 552.787 244.908 552.785 245.204 552.634C297.572 533.465 336.144 482.846 336.887 423.687V222.103H276.751V412.794C276.334 452.747 254.639 485.757 225.182 498.258C225.016 498.355 224.849 498.353 224.682 498.451C216.839 501.577 208.331 503.334 199.486 503.334C190.641 503.334 181.626 501.285 173.699 498.162C143.91 485.953 122.547 452.942 122.13 412.652V222.103H62Z" fill="white"/>
<path d="M62.2217 618.762V670.417C62.9636 726.506 100.943 777.129 153.904 795.851C167.996 800.644 184.017 803.786 199.742 803.788C215.468 803.788 230.596 801.092 244.54 796.3C244.837 796.151 245.135 796.149 245.432 795.998C296.105 777.448 333.81 729.442 336.87 675.84V618.762H276.751V660.002C276.334 696.819 254.639 729.832 225.182 742.331C225.016 742.43 224.849 742.428 224.682 742.524C216.839 745.65 208.331 747.409 199.486 747.409C190.641 747.409 181.626 745.36 173.699 742.235C143.909 730.028 122.547 697.013 122.13 659.962V618.762H62.2217Z" fill="white"/>
<path d="M505.663 221C492.578 221.701 479.976 224.226 468.222 228.265C467.924 228.415 467.625 228.417 467.329 228.567C414.963 247.736 376.394 298.357 375.654 357.543V560.315H435.784V368.686C436.2 328.45 457.896 295.445 487.353 282.943C487.518 282.847 487.684 282.843 487.853 282.745C495.696 279.619 504.209 277.862 513.054 277.862C521.899 277.862 530.908 279.916 538.836 283.041C568.626 295.248 589.987 328.258 590.405 368.839V560.315H650.541V357.69C649.798 298.055 611.824 247.436 558.864 228.715C546.862 224.634 533.459 221.767 520.035 221H505.663Z" fill="white"/>
<mask id="mask1_350_2" style="mask-type:luminance" maskUnits="userSpaceOnUse" x="405" y="389" width="186" height="55">
<path d="M405.667 389.939H590.487V443.655H405.667V389.939Z" fill="white"/>
</mask>
<g mask="url(#mask1_350_2)">
<mask id="mask2_350_2" style="mask-type:luminance" maskUnits="userSpaceOnUse" x="405" y="389" width="186" height="55">
<path d="M405.667 389.939H563.55L590.407 416.796L563.55 443.655H405.667L432.524 416.796L405.667 389.939Z" fill="white"/>
</mask>
<g mask="url(#mask2_350_2)">
<path d="M405.667 389.939H590.312V443.655H405.667V389.939Z" fill="white"/>
</g>
</g>
<mask id="mask3_350_2" style="mask-type:luminance" maskUnits="userSpaceOnUse" x="903" y="222" width="61" height="455">
<path d="M903.864 222.1H963.998V676.706H903.864V222.1Z" fill="white"/>
</mask>
<g mask="url(#mask3_350_2)">
<path d="M903.864 222.1H963.998V676.629H903.864V222.1Z" fill="white"/>
</g>
<path d="M689.113 222.103V423.54C689.856 483.146 727.83 533.766 780.79 552.487C793.896 556.944 808.668 559.94 823.319 560.344H830.363C844.746 559.953 858.596 557.348 871.432 552.936C871.728 552.787 872.021 552.785 872.318 552.634C924.685 533.465 963.258 482.846 964 423.687V222.103H903.865V412.794C903.448 452.747 881.75 485.757 852.296 498.258C852.128 498.355 851.963 498.353 851.795 498.451C843.951 501.577 835.444 503.334 826.599 503.334C817.755 503.334 808.74 501.285 800.812 498.162C771.023 485.953 749.66 452.942 749.243 412.652V222.103H689.113Z" fill="white"/>
<path d="M689.335 618.762V670.417C690.077 726.506 728.057 777.129 781.017 795.851C795.111 800.644 811.131 803.786 826.854 803.788C842.581 803.788 857.715 801.092 871.659 796.3C871.956 796.151 872.248 796.149 872.545 795.998C923.022 777.52 960.665 729.823 963.984 676.471V618.762H903.864V660.002C903.448 696.819 881.75 729.832 852.295 742.331C852.128 742.43 851.963 742.428 851.795 742.524C843.951 745.65 835.444 747.409 826.599 747.409C817.754 747.409 808.74 745.36 800.812 742.235C771.023 730.028 749.66 697.013 749.243 659.962V618.762H689.335Z" fill="white"/>
</g>
<defs>
<filter id="filter0_bd_350_2" x="58" y="217" width="918" height="600.788" filterUnits="userSpaceOnUse" color-interpolation-filters="sRGB">
<feFlood flood-opacity="0" result="BackgroundImageFix"/>
<feGaussianBlur in="BackgroundImageFix" stdDeviation="2"/>
<feComposite in2="SourceAlpha" operator="in" result="effect1_backgroundBlur_350_2"/>
<feColorMatrix in="SourceAlpha" type="matrix" values="0 0 0 0 0 0 0 0 0 0 0 0 0 0 0 0 0 0 127 0" result="hardAlpha"/>
<feOffset dx="4" dy="6"/>
<feGaussianBlur stdDeviation="4"/>
<feComposite in2="hardAlpha" operator="out"/>
<feColorMatrix type="matrix" values="0 0 0 0 0 0 0 0 0 0 0 0 0 0 0 0 0 0 0.25 0"/>
<feBlend mode="normal" in2="effect1_backgroundBlur_350_2" result="effect2_dropShadow_350_2"/>
<feBlend mode="normal" in="SourceGraphic" in2="effect2_dropShadow_350_2" result="shape"/>
</filter>
</defs>
</svg>
