<?xml version="1.0" encoding="UTF-8" standalone="no"?>
<!DOCTYPE svg PUBLIC "-//W3C//DTD SVG 1.1//EN" "http://www.w3.org/Graphics/SVG/1.1/DTD/svg11.dtd">
<!-- Created with Vectornator (http://vectornator.io/) -->
<svg height="5000.0pt" stroke-miterlimit="10" style="fill-rule:nonzero;clip-rule:evenodd;stroke-linecap:round;stroke-linejoin:round;" version="1.1" viewBox="0 0 5000 5000" width="5000.0pt" xml:space="preserve" xmlns="http://www.w3.org/2000/svg" xmlns:xlink="http://www.w3.org/1999/xlink">
<defs>
<filter color-interpolation-filters="sRGB" filterUnits="userSpaceOnUse" height="3278.53" id="Filter" width="5033.22" x="-15.6487" y="891.303">
<feDropShadow dx="1.57008" dy="29.9589" flood-color="#000000" flood-opacity="0.489347" in="SourceGraphic" result="Shadow" stdDeviation="15"/>
</filter>
</defs>
<clipPath id="ArtboardFrame">
<rect height="5000" width="5000" x="0" y="0"/>
</clipPath>
<g clip-path="url(#ArtboardFrame)" id="Untitled">
<g filter="url(#Filter)">
<path d="M20.2812 904.906L20.2812 2012.19C24.3594 2339.84 233.099 2618.09 524.219 2721C596.258 2745.5 677.458 2761.97 758 2764.19L796.719 2764.19C875.783 2762.04 951.917 2747.72 1022.47 2723.47C1024.1 2722.65 1025.71 2722.64 1027.34 2721.81C1089.08 2699.21 1147.29 2668.61 1200.75 2631.34L1200.75 3085.31L1200.75 3312C1198.46 3514.38 1079.2 3695.85 917.281 3764.56C916.365 3765.1 915.448 3765.09 914.531 3765.62C871.417 3782.8 824.651 3792.47 776.031 3792.47C727.411 3792.47 677.854 3781.21 634.281 3764.03C470.531 3696.93 353.104 3515.45 350.812 3311.78L350.812 3085.31L21.5 3085.31L21.5 3369.25C25.5781 3677.57 234.349 3955.84 525.469 4058.75C602.932 4085.1 691 4102.37 777.438 4102.38C863.88 4102.38 947.042 4087.56 1023.69 4061.22C1025.32 4060.4 1026.96 4060.39 1028.59 4059.56C1305.77 3958.1 1512.27 3696.3 1530.88 3403.41L1531.31 3403.41L1531.31 2013L1531.31 904.906L1200.75 904.906L1200.75 1953.12C1198.46 2172.74 1079.2 2354.19 917.281 2422.91C916.365 2423.44 915.448 2423.43 914.531 2423.97C871.417 2441.15 824.651 2450.81 776.031 2450.81C727.411 2450.81 677.854 2439.55 634.281 2422.38C470.531 2355.27 353.104 2173.81 350.812 1952.34L350.812 904.906L20.2812 904.906Z" fill="#ffffff" fill-rule="nonzero" opacity="1" stroke="none"/>
<path d="M2459.06 898.844C2387.13 902.698 2317.86 916.575 2253.25 938.781C2251.61 939.604 2249.97 939.615 2248.34 940.438C1960.49 1045.81 1748.48 1324.07 1744.41 1649.41L1744.41 2764.03L2074.94 2764.03L2074.94 2122.75L2777.25 2122.75L2924.38 1975.66L2924.38 1974.59L2777.25 1827.5L2074.94 1827.5L2074.94 1710.66C2077.23 1489.49 2196.49 1308.06 2358.41 1239.34C2359.32 1238.81 2360.23 1238.79 2361.16 1238.25C2404.27 1221.07 2451.07 1211.41 2499.69 1211.41C2548.31 1211.41 2597.83 1222.7 2641.41 1239.88C2805.16 1306.98 2922.58 1488.43 2924.88 1711.5L2924.88 2764.03L3255.44 2764.03L3255.44 1650.22C3251.36 1322.41 3042.62 1044.16 2751.5 941.25C2685.53 918.817 2611.85 903.059 2538.06 898.844L2459.06 898.844Z" fill="#ffffff" fill-rule="nonzero" opacity="1" stroke="none"/>
<path d="M3467.47 904.906L3467.47 2012.19C3471.55 2339.84 3680.29 2618.09 3971.41 2721C4043.45 2745.5 4124.65 2761.97 4205.19 2764.19L4243.91 2764.19C4322.97 2762.04 4399.1 2747.72 4469.66 2723.47C4471.29 2722.65 4472.9 2722.64 4474.53 2721.81C4536.27 2699.21 4594.48 2668.61 4647.94 2631.34L4647.94 3085.31L4647.94 3312C4645.65 3514.38 4526.38 3695.85 4364.47 3764.56C4363.55 3765.1 4362.64 3765.09 4361.72 3765.62C4318.6 3782.8 4271.84 3792.47 4223.22 3792.47C4174.6 3792.47 4125.05 3781.21 4081.47 3764.03C3917.72 3696.93 3800.29 3515.45 3798 3311.78L3798 3085.31L3468.69 3085.31L3468.69 3369.25C3472.77 3677.57 3681.54 3955.84 3972.66 4058.75C4050.13 4085.1 4138.19 4102.37 4224.62 4102.38C4311.07 4102.38 4394.26 4087.56 4470.91 4061.22C4472.54 4060.4 4474.15 4060.39 4475.78 4059.56C4752.98 3958.09 4959.75 3696.32 4978.34 3403.41L4978.5 3403.41L4978.5 2013L4978.5 904.906L4647.94 904.906L4647.94 1953.12C4645.65 2172.74 4526.38 2354.19 4364.47 2422.91C4363.55 2423.44 4362.64 2423.43 4361.72 2423.97C4318.6 2441.15 4271.84 2450.81 4223.22 2450.81C4174.6 2450.81 4125.05 2439.55 4081.47 2422.38C3917.72 2355.27 3800.29 2173.81 3798 1952.34L3798 904.906L3467.47 904.906Z" fill="#ffffff" fill-rule="nonzero" opacity="1" stroke="none"/>
</g>
</g>
</svg>
